<svg xmlns="http://www.w3.org/2000/svg" width="147" height="40" viewBox="0 0 147 40" fill="none">
<path d="M21.5609 31.3802C21.5609 31.7194 21.4627 32.0509 21.2786 32.3329C21.0945 32.6149 20.8328 32.8347 20.5267 32.9644C20.2206 33.0942 19.8838 33.1282 19.5588 33.062C19.2338 32.9959 18.9353 32.8326 18.701 32.5927C18.4667 32.3529 18.3072 32.0474 18.2425 31.7147C18.1779 31.3821 18.2111 31.0373 18.3379 30.724C18.4647 30.4107 18.6794 30.1429 18.9549 29.9544C19.2304 29.766 19.5543 29.6654 19.8856 29.6654C20.3299 29.6654 20.756 29.8461 21.0702 30.1677C21.3844 30.4893 21.5609 30.9254 21.5609 31.3802ZM32.9528 10.1428C33.7905 3.68675 29.1751 0 25.0204 0H8.77849C5.81323 0 3.86153 2.57215 3.4092 5.49583L0 29.3654C0 30.3568 0.384776 31.3076 1.06968 32.0087C1.75459 32.7097 2.68352 33.1035 3.65212 33.1035H11.4254C13.5363 33.1035 14.9352 31.243 15.1278 29.0824C15.1929 28.158 15.595 27.2923 16.2544 26.657C16.9138 26.0218 17.7823 25.6634 18.6878 25.6529H22.9933C24.6768 25.6545 26.3271 25.1735 27.7573 24.2643C29.1874 23.355 30.3401 22.054 31.0849 20.5086C31.4708 19.6572 31.7224 18.7485 31.8304 17.8164L32.9528 10.1428Z" fill="#2452FE"/>
<path d="M5.36163 29.5883H5.11035C4.67052 29.5245 4.27343 29.2846 4.0064 28.9212C3.73937 28.5579 3.62426 28.1008 3.6864 27.6506L6.99498 5.06711C7.04975 4.72727 7.20324 4.41218 7.43545 4.16289C7.66767 3.91361 7.96784 3.74169 8.29687 3.66952C8.6259 3.59735 8.96853 3.62828 9.28015 3.75828C9.59176 3.88827 9.8579 4.11132 10.0439 4.39835L17.0213 15.5443L18.6211 5.05854C18.6547 4.83335 18.7312 4.61714 18.8464 4.42223C18.9616 4.22733 19.1131 4.05755 19.2924 3.92261C19.4717 3.78766 19.6752 3.69018 19.8913 3.63573C20.1074 3.58128 20.3318 3.57093 20.5518 3.60527C20.7718 3.63962 20.983 3.71797 21.1734 3.83588C21.3639 3.95378 21.5297 4.10891 21.6616 4.29243C21.7934 4.47594 21.8886 4.68423 21.9418 4.90542C21.995 5.12661 22.0051 5.35636 21.9716 5.58154L19.6933 20.62C19.6445 20.9686 19.4922 21.2933 19.2569 21.5502C19.0215 21.807 18.7147 21.9834 18.378 22.0556C18.0413 22.1277 17.6911 22.0919 17.3749 21.9532C17.0588 21.8145 16.792 21.5795 16.6108 21.2802L9.6586 10.1342L7.01173 28.1393C6.94998 28.5422 6.74993 28.9094 6.44751 29.175C6.14508 29.4406 5.76009 29.5871 5.36163 29.5883Z" fill="white"/>
<path d="M61.0796 9.79989C60.6575 9.7985 60.2505 9.96022 59.94 10.2527C59.6294 10.5452 59.4381 10.9469 59.4043 11.3775L57.0841 26.9904L48.8671 11.146C48.725 10.7651 48.4788 10.4341 48.1581 10.1924C47.8373 9.95071 47.4554 9.8085 47.0579 9.78274C46.8316 9.77231 46.6056 9.80895 46.3936 9.89044C46.1816 9.97193 45.9879 10.0966 45.8242 10.2569C45.6606 10.4171 45.5304 10.6097 45.4416 10.823C45.3527 11.0362 45.307 11.2657 45.3072 11.4975L42.4426 31.3545C42.3926 31.5751 42.3915 31.8043 42.4394 32.0253C42.4872 32.2463 42.5827 32.4536 42.719 32.632C42.864 32.7896 43.0415 32.9121 43.2385 32.9907C43.4356 33.0693 43.6472 33.102 43.8582 33.0864C44.2802 33.0878 44.6872 32.9261 44.9978 32.6336C45.3083 32.3411 45.4996 31.9394 45.5334 31.5088L47.7866 16.0759L56.1209 31.9375C56.2757 32.2863 56.5257 32.5818 56.8407 32.7887C57.1557 32.9955 57.5224 33.1049 57.8966 33.1036C58.4494 33.1036 59.4127 32.8806 59.6389 31.3888L62.5286 11.5918C62.5741 11.3696 62.573 11.1401 62.5254 10.9184C62.4777 10.6967 62.3846 10.4879 62.2522 10.3057C62.1072 10.1356 61.9263 10.0017 61.723 9.914C61.5198 9.82634 61.2997 9.78731 61.0796 9.79989Z" fill="#333232"/>
<path d="M72.1871 14.7899C67.2452 14.7899 63.9785 19.454 63.3084 24.0582C62.8812 26.939 63.4508 29.4683 64.8999 31.1916C65.5512 31.9295 66.3536 32.5112 67.2499 32.895C68.1461 33.2789 69.1141 33.4555 70.0847 33.4122C71.3303 33.4502 72.5699 33.2212 73.7239 32.7399C74.8779 32.2585 75.9208 31.5355 76.7857 30.6172C77.0402 30.3777 77.201 30.0516 77.238 29.6997C77.283 29.4973 77.2822 29.2871 77.2358 29.085C77.1893 28.8829 77.0984 28.6943 76.9699 28.5337C76.4339 27.8821 75.1691 28.0021 74.2812 28.7395C73.2159 29.7423 71.8075 30.2752 70.3611 30.2227C69.7974 30.2083 69.2434 30.069 68.7374 29.8144C68.2313 29.5598 67.7851 29.196 67.4295 28.748C66.7268 27.9427 66.3469 26.8955 66.3657 25.8158H75.8727C77.7908 25.8158 78.151 24.3925 78.3855 22.9436C78.7541 20.3714 78.3018 18.3051 77.0705 16.8476C76.4558 16.1562 75.699 15.6131 74.8546 15.2572C74.0102 14.9014 73.0991 14.7418 72.1871 14.7899ZM71.9526 18.0393C72.4005 18.0226 72.8465 18.1068 73.259 18.2861C73.6715 18.4654 74.0405 18.7353 74.3398 19.0768C75.0527 20.087 75.3532 21.3417 75.1774 22.5749H66.9102C67.5719 20.0113 69.6492 18.0651 71.9526 18.0651V18.0393Z" fill="#333232"/>
<path d="M94.3771 16.899C93.8037 16.2272 93.0911 15.6946 92.2913 15.3401C91.4915 14.9857 90.6245 14.8182 89.7535 14.8499C84.577 14.8499 81.5197 19.6169 80.8748 24.0581C80.4476 26.9732 81.0339 29.6311 82.483 31.3545C83.066 32.0325 83.7878 32.5707 84.5971 32.9308C85.4063 33.2909 86.2832 33.4641 87.1653 33.4379C92.3417 33.4379 95.3823 28.7737 96.0105 24.4354C96.4461 21.4346 95.8262 18.6481 94.3771 16.899ZM87.4919 30.317C87.0532 30.3424 86.6147 30.2635 86.2107 30.0865C85.8068 29.9095 85.4483 29.6392 85.1634 29.2968C84.0326 27.9592 83.8902 25.6786 84.1331 23.9981C84.5687 21.0316 86.3612 18.0393 89.385 18.0393C89.8085 18.0278 90.2291 18.1135 90.6161 18.29C91.0031 18.4666 91.3466 18.7295 91.6214 19.0596C92.593 20.2171 93.0202 22.3262 92.7103 24.444C92.3082 27.3676 90.5157 30.317 87.4668 30.317H87.4919Z" fill="#333232"/>
<path d="M107.779 14.8499C106.062 14.9453 104.438 15.6802 103.214 16.9162L103.264 16.6075C103.314 16.3814 103.314 16.1471 103.267 15.9206C103.219 15.6941 103.124 15.481 102.988 15.2957C102.842 15.1397 102.664 15.0188 102.467 14.9417C102.27 14.8646 102.059 14.8332 101.849 14.8499C101.41 14.8287 100.98 14.9849 100.653 15.2849C100.325 15.5848 100.126 16.0044 100.098 16.4532L96.9319 38.1793C96.8778 38.4148 96.8744 38.6595 96.9222 38.8964C96.9699 39.1333 97.0676 39.3568 97.2083 39.5511C97.3473 39.7042 97.518 39.8237 97.7078 39.9008C97.8976 39.978 98.1018 40.0108 98.3056 39.9969C98.7454 39.9883 99.1675 39.8182 99.495 39.5176C99.8225 39.217 100.034 38.8059 100.09 38.3593L101.078 31.5774C101.587 32.1987 102.231 32.6902 102.958 33.0131C103.685 33.336 104.475 33.4815 105.266 33.438C110.292 33.438 113.224 28.7138 113.86 24.324C114.296 21.3403 113.693 18.5281 112.235 16.8047C111.682 16.1596 110.994 15.6493 110.223 15.3111C109.452 14.9728 108.617 14.8153 107.779 14.8499ZM105.719 30.3771C105.257 30.3996 104.797 30.3167 104.371 30.1343C103.945 29.9518 103.564 29.6745 103.256 29.3225C102.36 28.2594 102.008 26.3903 102.309 24.3326C102.753 21.3231 104.613 18.0908 107.662 18.0908C108.042 18.0663 108.423 18.1307 108.776 18.2793C109.129 18.4278 109.444 18.6566 109.697 18.9482C110.753 20.2 110.861 22.5149 110.61 24.2554C110.208 27.1019 108.675 30.3771 105.727 30.3771H105.719Z" fill="#333232"/>
<path d="M124.666 14.9614C122.895 14.9418 121.136 15.2617 119.481 15.9045C119.164 16.0179 118.88 16.2107 118.655 16.4653C118.429 16.7199 118.27 17.0282 118.191 17.362C118.153 17.5492 118.157 17.7426 118.202 17.9281C118.247 18.1136 118.332 18.2864 118.451 18.4338C118.92 18.9911 119.874 18.9139 121.014 18.6052C121.885 18.3287 122.79 18.1786 123.702 18.1594C124.239 18.1121 124.78 18.1791 125.29 18.3562C125.8 18.5333 126.269 18.8166 126.668 19.1883C126.866 19.4431 127.008 19.7394 127.084 20.0563C127.159 20.3733 127.166 20.7032 127.103 21.0231L126.827 22.9608C125.657 22.2675 124.325 21.9147 122.974 21.9405C119.665 21.9405 116.03 23.921 115.477 27.6935C115.349 28.3596 115.367 29.0464 115.529 29.7046C115.691 30.3628 115.994 30.9761 116.415 31.5003C116.993 32.1057 117.69 32.5791 118.459 32.8894C119.229 33.1997 120.054 33.3399 120.88 33.3008C122.551 33.2911 124.183 32.7847 125.579 31.8432C125.568 32.0383 125.597 32.2336 125.665 32.4162C125.734 32.5987 125.839 32.7644 125.974 32.9022C126.11 33.04 126.272 33.1467 126.451 33.2155C126.629 33.2842 126.82 33.3133 127.011 33.3008C127.434 33.2993 127.842 33.1428 128.162 32.8597C128.481 32.5766 128.691 32.1855 128.753 31.7575L130.328 20.9716C130.469 20.2348 130.45 19.4753 130.274 18.7466C130.097 18.0178 129.767 17.3375 129.306 16.7533C128.706 16.1281 127.98 15.6439 127.179 15.3345C126.377 15.0251 125.52 14.8978 124.666 14.9614ZM122.672 25.0785C123.242 25.045 123.813 25.1269 124.352 25.3196C124.891 25.5124 125.388 25.8121 125.813 26.2017C125.954 26.3579 126.058 26.5448 126.117 26.7484C126.177 26.9519 126.19 27.1666 126.157 27.3763C125.897 29.1339 123.577 30.2142 121.566 30.2142C121.112 30.2578 120.654 30.204 120.222 30.0564C119.789 29.9088 119.391 29.6705 119.054 29.3568C118.877 29.1308 118.751 28.8674 118.686 28.5857C118.621 28.304 118.618 28.011 118.677 27.7278C118.945 25.8759 120.88 25.0785 122.672 25.0785Z" fill="#333232"/>
<path d="M146.369 15.8359C146.225 15.6801 146.049 15.5591 145.853 15.482C145.658 15.4049 145.448 15.3735 145.239 15.3901C144.851 15.3823 144.47 15.4944 144.146 15.7116C143.822 15.9288 143.569 16.241 143.421 16.6075L138.27 27.5735L136.452 16.9076C136.37 16.521 136.159 16.1755 135.856 15.9297C135.553 15.6839 135.176 15.553 134.79 15.559C134.403 15.5651 134.031 15.7078 133.735 15.963C133.44 16.2181 133.24 16.5701 133.169 16.9591C133.132 17.2451 133.146 17.5355 133.21 17.8165L135.832 32.2376L133.143 37.3819C133.001 37.6473 132.91 37.9385 132.875 38.2393C132.827 38.4534 132.825 38.6756 132.87 38.8905C132.915 39.1053 133.006 39.3074 133.135 39.4825C133.273 39.6307 133.442 39.7459 133.629 39.82C133.815 39.8941 134.016 39.9253 134.216 39.9112C134.621 39.9145 135.019 39.795 135.359 39.5677C135.699 39.3404 135.965 39.0155 136.125 38.6337L146.395 17.885C146.522 17.6152 146.604 17.3254 146.637 17.0277C146.679 16.821 146.676 16.6076 146.63 16.402C146.584 16.1964 146.495 16.0034 146.369 15.8359Z" fill="#333232"/>
</svg>